HIERARCHY
ROOT Hips
{
 OFFSET 0.000000 0.000000 0.000000
 CHANNELS 6 Xposition Yposition Zposition Yrotation Xrotation Zrotation
 JOINT Chest
 {
  OFFSET 0.000000 10.597006 0.000597
  CHANNELS 3 Yrotation Xrotation Zrotation
  JOINT Chest2
  {
   OFFSET 0.000000 11.704727 -0.001085
   CHANNELS 3 Yrotation Xrotation Zrotation
   JOINT Chest3
   {
    OFFSET 0.000000 10.576076 0.000000
    CHANNELS 3 Yrotation Xrotation Zrotation
    JOINT Chest4
    {
     OFFSET 0.000000 10.576076 0.000000
     CHANNELS 3 Yrotation Xrotation Zrotation
     JOINT Neck
     {
      OFFSET 0.000000 14.869514 0.000000
      CHANNELS 3 Yrotation Xrotation Zrotation
      JOINT Head
      {
       OFFSET 0.000000 9.843597 -0.002580
       CHANNELS 3 Yrotation Xrotation Zrotation
       End Site
       {
        OFFSET 0.000000 18.838042 -0.001347
       }
      }
     }
     JOINT RightCollar
     {
      OFFSET -3.229945 8.296076 0.000000
      CHANNELS 3 Yrotation Xrotation Zrotation
      JOINT RightShoulder
      {
       OFFSET -15.063183 0.000000 0.000000
       CHANNELS 3 Yrotation Xrotation Zrotation
       JOINT RightElbow
       {
        OFFSET 0.000000 -32.186481 0.000000
        CHANNELS 3 Yrotation Xrotation Zrotation
        JOINT RightWrist
        {
         OFFSET 0.000000 -26.328084 0.000000
         CHANNELS 3 Yrotation Xrotation Zrotation
         End Site
         {
          OFFSET 0.000000 -19.694862 0.000000
         }
        }
       }
      }
     }
     JOINT LeftCollar
     {
      OFFSET 3.229945 8.296076 0.000000
      CHANNELS 3 Yrotation Xrotation Zrotation
      JOINT LeftShoulder
      {
       OFFSET 15.063183 0.000000 0.000000
       CHANNELS 3 Yrotation Xrotation Zrotation
       JOINT LeftElbow
       {
        OFFSET 0.000000 -32.186481 0.000000
        CHANNELS 3 Yrotation Xrotation Zrotation
        JOINT LeftWrist
        {
         OFFSET 0.000000 -26.328084 0.000000
         CHANNELS 3 Yrotation Xrotation Zrotation
         End Site
         {
          OFFSET 0.000000 -19.694862 0.000000
         }
        }
       }
      }
     }
    }
   }
  }
 }
 JOINT RightHip
 {
  OFFSET -8.601177 -0.002926 -0.000299
  CHANNELS 3 Yrotation Xrotation Zrotation
  JOINT RightKnee
  {
   OFFSET 0.000000 -44.528051 0.000282
   CHANNELS 3 Yrotation Xrotation Zrotation
   JOINT RightAnkle
   {
    OFFSET 0.000000 -43.560721 0.000478
    CHANNELS 3 Yrotation Xrotation Zrotation
    JOINT RightToe
    {
     OFFSET 0.000000 -7.669527 17.403862
     CHANNELS 3 Yrotation Xrotation Zrotation
     End Site
     {
      OFFSET 0.000000 -1.627843 7.076630
     }
    }
   }
  }
 }
 JOINT LeftHip
 {
  OFFSET 8.601177 -0.002926 -0.000299
  CHANNELS 3 Yrotation Xrotation Zrotation
  JOINT LeftKnee
  {
   OFFSET 0.000000 -44.528051 0.000282
   CHANNELS 3 Yrotation Xrotation Zrotation
   JOINT LeftAnkle
   {
    OFFSET 0.000000 -43.560721 0.000478
    CHANNELS 3 Yrotation Xrotation Zrotation
    JOINT LeftToe
    {
     OFFSET 0.000000 -7.669527 17.403862
     CHANNELS 3 Yrotation Xrotation Zrotation
     End Site
     {
      OFFSET 0.000000 -1.627843 7.076630
     }
    }
   }
  }
 }
}
MOTION
Frames: 15
Frame Time: 0.008333
320.975201 96.119395 184.469934 -88.236562 -4.496549 0.936503 -2.623108 18.015202 -0.856630 -1.088847 8.033795 -0.162022 -1.088847 8.033795 -0.162022 -0.813149 6.025657 -0.106920 -1.655566 22.750894 1.617051 -3.420986 6.134186 3.361914 -3.491669 -0.188954 12.048585 -4.559465 -19.228078 -22.422014 12.996443 -25.012233 1.085411 4.395016 -14.935900 -2.333533 -3.435221 3.109045 -7.739208 -2.805469 -24.291856 25.053310 -2.777233 -16.354512 -5.487317 -6.509921 -22.815702 -4.788299 -11.137574 -7.224338 -4.066104 -6.142794 22.685872 -0.211648 -8.333624 -10.977753 2.074794 0.031876 -0.241156 0.472495 4.569453 2.423231 -0.257765 0.086679 14.614015 -3.338259 2.983641 -11.698102 0.497144 0.018292 0.505444 -0.166154
321.208755 96.145982 184.535365 -87.897666 -4.502397 1.037749 -2.619319 18.039496 -0.925933 -1.064566 8.064444 -0.183970 -1.064566 8.064444 -0.183970 -0.794659 6.048675 -0.123618 -1.631644 22.776495 1.569874 -3.364388 6.178763 3.269642 -3.480023 -0.222055 12.040807 -4.347286 -19.208763 -22.380769 12.965547 -25.109752 1.107557 4.333230 -14.927365 -2.286215 -3.439013 3.148626 -7.729832 -2.975558 -24.418983 24.976039 -2.587908 -16.181916 -5.478330 -6.498808 -22.760705 -4.429133 -10.962064 -7.422956 -4.211679 -6.433241 22.833680 -0.271444 -8.521213 -10.890233 2.023547 0.027055 -0.256881 0.468442 4.190646 2.173154 -0.376086 0.307433 14.791870 -3.367207 2.705665 -11.673751 0.428940 0.106139 0.535282 0.002948
321.437487 96.162451 184.584240 -87.570127 -4.519744 1.071126 -2.597412 18.093601 -0.954752 -1.044631 8.095466 -0.202393 -1.044631 8.095466 -0.202393 -0.779468 6.071966 -0.137622 -1.603060 22.799666 1.524674 -3.300029 6.218790 3.179788 -3.475897 -0.238098 12.031391 -4.126117 -19.197055 -22.393161 12.924666 -25.278716 1.172767 4.307007 -14.934385 -2.223838 -3.418603 3.205564 -7.727292 -3.163393 -24.556067 24.918876 -2.462540 -15.982727 -5.330491 -6.489247 -22.781598 -4.141398 -10.818852 -7.573792 -4.294220 -6.701078 22.942285 -0.311796 -8.690796 -10.789582 1.976070 0.011909 -0.273784 0.445633 3.838915 1.904154 -0.373960 0.501571 15.021722 -3.468973 2.416379 -11.631356 0.371338 0.201849 0.528563 0.155847
321.679097 96.171616 184.619233 -87.236770 -4.513789 1.111886 -2.607577 18.114390 -0.985584 -1.020754 8.131450 -0.219395 -1.020754 8.131450 -0.219395 -0.761338 6.098974 -0.150607 -1.572670 22.820627 1.483306 -3.233540 6.254866 3.096449 -3.473183 -0.260753 12.029826 -3.908877 -19.220911 -22.390141 12.913304 -25.494753 1.242425 4.313053 -14.925382 -2.192994 -3.406086 3.263458 -7.714556 -3.339243 -24.712157 24.857156 -2.370012 -15.809729 -5.301680 -6.614257 -22.743107 -3.678985 -10.732960 -7.748114 -4.368561 -6.931038 23.028144 -0.348771 -8.853610 -10.672775 1.936060 0.000045 -0.290335 0.407677 3.540439 1.600948 -0.392359 0.592295 15.253770 -3.545692 2.177077 -11.592689 0.297171 0.303626 0.537711 0.282139
321.912525 96.176090 184.666992 -86.941853 -4.524996 1.140683 -2.583282 18.174037 -1.035772 -0.992228 8.165138 -0.231595 -0.992228 8.165138 -0.231595 -0.739793 6.124249 -0.160065 -1.541131 22.839242 1.452064 -3.167789 6.286997 3.031145 -3.499030 -0.270590 12.020829 -3.707072 -19.254615 -22.425220 12.931067 -25.749695 1.333179 4.325321 -14.951657 -2.159288 -3.397009 3.342739 -7.696333 -3.522399 -24.872263 24.814646 -2.352739 -15.624977 -5.148581 -6.722518 -22.768793 -3.315393 -10.654147 -7.901161 -4.450801 -7.148224 23.111603 -0.378191 -8.978853 -10.551263 1.922058 -0.015551 -0.306450 0.356824 3.434956 1.314948 -0.463734 0.470990 15.495821 -3.564819 2.123341 -11.550954 0.272172 0.299639 0.531918 0.323103
322.146183 96.175973 184.725508 -86.696354 -4.537422 1.177005 -2.553200 18.239140 -1.097118 -0.959842 8.200948 -0.243934 -0.959842 8.200948 -0.243934 -0.715354 6.151112 -0.169678 -1.506029 22.855038 1.424931 -3.096819 6.313969 2.972393 -3.510143 -0.293715 12.032223 -3.491580 -19.322716 -22.434351 12.967618 -26.053623 1.424808 4.355312 -14.950536 -2.168902 -3.390755 3.412577 -7.671160 -3.677371 -25.030998 24.771472 -2.379049 -15.495149 -5.112170 -6.908550 -22.728089 -2.820534 -10.568387 -8.061989 -4.548482 -7.353195 23.197357 -0.405580 -9.088579 -10.416104 1.931674 -0.021004 -0.324463 0.298317 3.601566 1.063904 -0.597556 0.078958 15.682077 -3.521998 2.185706 -11.496951 0.284669 0.252482 0.535139 0.301731
322.362316 96.172399 184.798754 -86.492188 -4.552544 1.168494 -2.485658 18.331413 -1.143112 -0.924404 8.233942 -0.249793 -0.924404 8.233942 -0.249793 -0.688718 6.175851 -0.174491 -1.467513 22.872928 1.405163 -3.021626 6.345025 2.925958 -3.528398 -0.316978 12.024558 -3.299424 -19.380566 -22.472419 13.044422 -26.381185 1.492379 4.368440 -14.975989 -2.176478 -3.405195 3.484591 -7.639621 -3.811811 -25.170347 24.735681 -2.447760 -15.355587 -4.960031 -7.044813 -22.746877 -2.465467 -10.480488 -8.203258 -4.606312 -7.538180 23.272556 -0.443406 -9.183599 -10.250541 1.988464 -0.026630 -0.361891 0.225726 4.027044 0.856961 -0.683610 -0.569277 15.827832 -3.515074 2.284080 -11.465210 0.358605 0.207719 0.555639 0.251879
322.568374 96.165612 184.869611 -86.320294 -4.573615 1.149015 -2.413375 18.426160 -1.166869 -0.890939 8.270276 -0.258394 -0.890939 8.270276 -0.258394 -0.663521 6.203099 -0.181327 -1.421010 22.893719 1.385638 -2.932045 6.381233 2.877768 -3.530335 -0.358706 12.040723 -3.093646 -19.462638 -22.506840 13.130756 -26.758597 1.602409 4.378315 -14.990199 -2.215924 -3.412718 3.555601 -7.604821 -3.925115 -25.300595 24.701231 -2.528583 -15.288288 -4.946107 -7.238130 -22.688606 -2.028209 -10.402674 -8.339295 -4.646646 -7.682590 23.356207 -0.483585 -9.293724 -10.082282 2.071365 -0.024671 -0.403100 0.151269 4.604521 0.711542 -0.734907 -1.356256 15.887536 -3.541417 2.358809 -11.419422 0.464665 0.204964 0.587433 0.197941
322.756008 96.160758 184.943409 -86.179884 -4.595741 1.098307 -2.318510 18.543649 -1.177976 -0.857017 8.308260 -0.263326 -0.857017 8.308260 -0.263326 -0.638029 6.231579 -0.185424 -1.373499 22.911748 1.362276 -2.839717 6.412200 2.822494 -3.532501 -0.416207 12.026405 -2.900871 -19.540742 -22.547203 13.251810 -27.116828 1.638353 4.377468 -15.009424 -2.255071 -3.431775 3.621780 -7.573454 -4.022032 -25.419584 24.682192 -2.619726 -15.202430 -4.830112 -7.375784 -22.679707 -1.778103 -10.310928 -8.468114 -4.665571 -7.775995 23.464848 -0.499468 -9.434211 -9.930518 2.179521 -0.025426 -0.445180 0.076322 5.262304 0.614897 -0.740416 -2.171076 15.889797 -3.589043 2.396162 -11.384445 0.606559 0.211788 0.632548 0.140275
322.930903 96.164807 185.007073 -86.101030 -4.647468 1.037142 -2.195601 18.688108 -1.166971 -0.821082 8.352144 -0.272990 -0.821082 8.352144 -0.272990 -0.610961 6.264488 -0.193086 -1.321762 22.928306 1.343375 -2.741026 6.440507 2.774194 -3.525872 -0.496174 12.049110 -2.691546 -19.636352 -22.607950 13.346535 -27.528533 1.730333 4.362044 -15.034115 -2.274258 -3.449301 3.669882 -7.535387 -4.115101 -25.522513 24.672623 -2.686457 -15.181100 -4.859524 -7.559216 -22.584300 -1.489256 -10.190743 -8.586915 -4.661297 -7.798890 23.631008 -0.507345 -9.621932 -9.837253 2.307800 -0.019175 -0.460637 0.003682 5.961729 0.603214 -0.723663 -2.937252 15.801140 -3.619852 2.413418 -11.300375 0.751390 0.207971 0.657227 0.081823
323.089331 96.171368 185.077706 -86.057058 -4.694488 0.971168 -2.065267 18.844265 -1.165538 -0.786859 8.396130 -0.280456 -0.786859 8.396130 -0.280456 -0.585206 6.297472 -0.199085 -1.261939 22.946117 1.317953 -2.626013 6.470722 2.711981 -3.508453 -0.568447 12.039318 -2.491988 -19.751599 -22.660263 13.470025 -27.895541 1.748320 4.348379 -15.048813 -2.306888 -3.468600 3.716693 -7.505003 -4.207862 -25.617743 24.669147 -2.749336 -15.125330 -4.786932 -7.671632 -22.537535 -1.374823 -10.059873 -8.706741 -4.656159 -7.753321 23.825047 -0.498335 -9.827089 -9.762195 2.467522 -0.015954 -0.479398 -0.068892 6.677199 0.631125 -0.698770 -3.633966 15.673782 -3.644845 2.378530 -11.255375 0.903569 0.202877 0.709179 0.036385
323.254865 96.180986 185.143687 -86.037923 -4.725812 0.931737 -1.953283 18.981555 -1.169186 -0.756158 8.443800 -0.295643 -0.756158 8.443800 -0.295643 -0.561976 6.333228 -0.210815 -1.196299 22.961501 1.289217 -2.499722 6.496232 2.642333 -3.477477 -0.655982 12.055421 -2.262480 -19.889094 -22.732341 13.533014 -28.288447 1.832585 4.347531 -15.073611 -2.324854 -3.473352 3.748855 -7.484906 -4.308862 -25.703105 24.686362 -2.776425 -15.118700 -4.859422 -7.851359 -22.415213 -1.200072 -9.946229 -8.864627 -4.659707 -7.652695 24.082744 -0.494187 -10.055691 -9.749503 2.657739 -0.003040 -0.477718 -0.140534 7.298843 0.667584 -0.708403 -4.179005 15.496150 -3.635918 2.315701 -11.178938 1.035076 0.197316 0.751818 0.004192
323.415216 96.196391 185.221289 -86.064908 -4.763867 0.897001 -1.826254 19.140911 -1.185922 -0.728098 8.489920 -0.311836 -0.728098 8.489920 -0.311836 -0.540709 6.367823 -0.223267 -1.122532 22.976279 1.259247 -2.358497 6.520443 2.568337 -3.445203 -0.729097 12.048725 -2.029144 -20.050606 -22.801970 13.600166 -28.635860 1.881415 4.354343 -15.084379 -2.369185 -3.460428 3.785231 -7.483324 -4.412612 -25.768052 24.717733 -2.795470 -15.104752 -4.838852 -7.998649 -22.360129 -1.173073 -9.798299 -9.035835 -4.686278 -7.561164 24.415805 -0.483871 -10.238010 -9.795323 2.883724 0.005376 -0.464228 -0.217724 7.799522 0.745873 -0.737212 -4.540687 15.273517 -3.608422 2.270112 -11.100467 1.166238 0.159501 0.795314 -0.024234
323.580281 96.217350 185.298433 -86.094347 -4.788390 0.879063 -1.718461 19.286740 -1.194545 -0.704183 8.538396 -0.336445 -0.704183 8.538396 -0.336445 -0.522423 6.404196 -0.241962 -1.044079 22.985334 1.229808 -2.209123 6.534038 2.494200 -3.397591 -0.813873 12.072589 -1.786789 -20.238802 -22.879440 13.627932 -28.985712 1.963670 4.357625 -15.110011 -2.396965 -3.449725 3.806582 -7.469413 -4.502004 -25.823436 24.747321 -2.808360 -15.140535 -4.950263 -8.226341 -22.245739 -1.046804 -9.652212 -9.269430 -4.715009 -7.516086 24.830734 -0.507851 -10.351020 -9.896384 3.138934 0.015388 -0.428908 -0.302734 8.130770 0.806132 -0.805270 -4.741932 15.050912 -3.539405 2.244555 -10.969173 1.268082 0.118862 0.787462 -0.048491
323.743874 96.241582 185.386302 -86.110723 -4.768490 0.876479 -1.635707 19.412883 -1.226033 -0.682549 8.583227 -0.364148 -0.682549 8.583227 -0.364148 -0.505801 6.437838 -0.262948 -0.960413 22.989863 1.205446 -2.051823 6.539368 2.427925 -3.367430 -0.876405 12.086133 -1.541137 -20.467067 -22.943195 13.667133 -29.298075 2.017694 4.365010 -15.111626 -2.439985 -3.448854 3.830157 -7.459531 -4.568636 -25.870406 24.778223 -2.849369 -15.177701 -4.962004 -8.440023 -22.206453 -1.027682 -9.513443 -9.599610 -4.776392 -7.526046 25.313134 -0.534207 -10.362415 -9.996454 3.424736 0.017398 -0.406232 -0.403596 8.280796 0.814062 -0.908264 -4.837535 14.845688 -3.477359 2.260664 -10.860991 1.356597 0.094085 0.788174 -0.056982
